/* XPM */
static char * color_scheme_ini[] = {
"16 16 4 1",
/* workaround : use color None */
" 	c None",
".	c #729fcf",
"+	c #6194cb",
"@	c #3465a4",
"................",
"................",
"................",
"................",
"................",
"++++++++++++++++",
"++++++++++++++++",
"++++++++++++++++",
"++++++++++++++++",
"++++++++++++++++",
"@@@@@@@@@@@@@@@@",
"@@@@@@@@@@@@@@@@",
"@@@@@@@@@@@@@@@@",
"@@@@@@@@@@@@@@@@",
"@@@@@@@@@@@@@@@@",
"                "};
