/* XPM */
static char * ini[] = {
"16 16 2 1",
/* workaround : use color None */
" 	c None",
".	c #000000",
"................",
"................",
"................",
"................",
"................",
"................",
"................",
"................",
"................",
"................",
"................",
"................",
"................",
"................",
"................",
"                "};
